<?xml version="1.0" encoding="iso-8859-1"?>
<!-- Generator: Adobe Illustrator 19.0.0, SVG Export Plug-In . SVG Version: 6.00 Build 0)  -->
<svg version="1.1" id="Layer_1" xmlns="http://www.w3.org/2000/svg" xmlns:xlink="http://www.w3.org/1999/xlink" x="0px" y="0px"
	 viewBox="0 0 512 512" style="enable-background:new 0 0 512 512;" xml:space="preserve">
<g>
	<g>
		<path fill="orange" d="M490.667,426.667h-21.333V256H384v170.667h-42.667V85.333H256v341.333h-42.667V192H128v234.667H85.333V21.333
			C85.333,9.551,75.782,0,64,0C52.218,0,42.667,9.551,42.667,21.333v405.333H21.333C9.551,426.667,0,436.218,0,448
			c0,11.782,9.551,21.333,21.333,21.333h21.333v21.333C42.667,502.449,52.218,512,64,512c11.782,0,21.333-9.551,21.333-21.333
			v-21.333h405.333c11.782,0,21.333-9.551,21.333-21.333C512,436.218,502.449,426.667,490.667,426.667z"/>
	</g>
</g>
<g>
</g>
<g>
</g>
<g>
</g>
<g>
</g>
<g>
</g>
<g>
</g>
<g>
</g>
<g>
</g>
<g>
</g>
<g>
</g>
<g>
</g>
<g>
</g>
<g>
</g>
<g>
</g>
<g>
</g>
</svg>
